<svg xmlns="http://www.w3.org/2000/svg" viewBox="0 0 900 520"><rect width="900" height="520" fill="white"/><style>text{font-family:Arial,sans-serif;fill:#1f2937}.t{font-size:25px;font-weight:700}.a{font-size:16px}.axis{stroke:#374151;stroke-width:2}.g{stroke:#e5e7eb}.lo{fill:none;stroke:#2563eb;stroke-width:4}.mid{fill:none;stroke:#f59e0b;stroke-width:4}.hi{fill:none;stroke:#16a34a;stroke-width:4}</style><text x="450" y="40" text-anchor="middle" class="t">Recovery trajectory by baseline spiritual struggle</text><line x1="100" y1="430" x2="820" y2="430" class="axis"/><line x1="100" y1="90" x2="100" y2="430" class="axis"/><g class="g"><line x1="100" y1="350" x2="820" y2="350"/><line x1="100" y1="270" x2="820" y2="270"/><line x1="100" y1="190" x2="820" y2="190"/><line x1="100" y1="110" x2="820" y2="110"/></g><g class="a"><text x="170" y="458" text-anchor="middle">T1</text><text x="370" y="458" text-anchor="middle">T2</text><text x="570" y="458" text-anchor="middle">T3</text><text x="770" y="458" text-anchor="middle">T4</text></g><polyline points="170,170 370,160 570,125 770,85" class="lo"/><polyline points="170,320 370,305 570,260 770,205" class="mid"/><polyline points="170,345 370,360 570,335 770,280" class="hi"/><g class="a"><text x="135" y="495" fill="#2563eb">Lower struggle</text><text x="360" y="495" fill="#f59e0b">Middle</text><text x="510" y="495" fill="#16a34a">Higher struggle</text><text x="665" y="495">All groups improve over time</text></g></svg>